<svg xmlns="http://www.w3.org/2000/svg" data-name="Layer 1" viewBox="0 0 64 64"><rect width="13.77" height="6.65" x="25.12" y="50.06" fill="#6c99b7"/><rect width="13.77" height="1.5" x="25.12" y="50.06" fill="#6192ad"/><rect width="64" height="45.08" y="5.61" fill="#7ca3c2" rx="3"/><rect width="37.08" height="56" x="13.46" y=".15" fill="#fff" transform="rotate(90 32 28.15)"/><path fill="#f4f2f2" d="M4,9.61V46.69H60V9.61ZM59.1,45.79H4.9V10.51H59.1Z"/><path fill="#7ca3c2" d="M44.89,58.39H19.11A3.35,3.35,0,0,1,22.46,55H41.54a3.35,3.35,0,0,1,3.35,3.35Z"/><rect width="4.55" height="5.61" x="11.64" y="36.22" fill="#d82b5d"/><rect width="4.55" height="11.22" x="20.68" y="30.61" fill="#f0bb73"/><rect width="4.55" height="8.65" x="29.72" y="33.18" fill="#365470"/><rect width="4.55" height="14.27" x="38.77" y="27.56" fill="#ee9156"/><rect width="4.55" height="18.3" x="47.81" y="23.53" fill="#95cebe"/><path fill="#e9e9e9" d="M51.42,17.81a.49.49,0,0,0-.29-.29l-2.43-1a.51.51,0,0,0-.66.28.51.51,0,0,0,.28.65l1.26.51-8.72,3.35a.57.57,0,0,0-.13.08l-8.82,7.24-8.78-3.32a.48.48,0,0,0-.45.05l-9,6a.49.49,0,0,0-.14.69.47.47,0,0,0,.41.22.46.46,0,0,0,.28-.08L23,26.36l8.81,3.32a.47.47,0,0,0,.49-.08l9-7.36L50,18.91l-.6,1.23a.49.49,0,0,0,.23.67.54.54,0,0,0,.21.05.5.5,0,0,0,.45-.28l1.16-2.37h0A.47.47,0,0,0,51.42,17.81Z"/></svg>